<mxfile host="app.diagrams.net" modified="2021-12-31T09:18:48.244Z" agent="5.0 (Windows NT 10.0; Win64; x64) AppleWebKit/537.36 (KHTML, like Gecko) Chrome/92.0.4515.159 Safari/537.36" etag="ni36N8uaYvv142XCD1_U" version="16.1.2" type="github">
  <diagram id="-nCn3_ou5zMqZBry92oC" name="第 1 页">
    <mxGraphModel dx="1038" dy="491" grid="1" gridSize="10" guides="1" tooltips="1" connect="1" arrows="1" fold="1" page="1" pageScale="1" pageWidth="827" pageHeight="1169" math="0" shadow="0">
      <root>
        <mxCell id="0" />
        <mxCell id="1" parent="0" />
        <mxCell id="4RD6xHpMuVBiaNQP-EiV-4" value="" style="edgeStyle=orthogonalEdgeStyle;rounded=0;orthogonalLoop=1;jettySize=auto;html=1;" parent="1" source="4RD6xHpMuVBiaNQP-EiV-2" target="4RD6xHpMuVBiaNQP-EiV-3" edge="1">
          <mxGeometry relative="1" as="geometry" />
        </mxCell>
        <mxCell id="4RD6xHpMuVBiaNQP-EiV-2" value="开始" style="strokeWidth=2;html=1;shape=mxgraph.flowchart.start_1;whiteSpace=wrap;" parent="1" vertex="1">
          <mxGeometry x="370" y="210" width="100" height="60" as="geometry" />
        </mxCell>
        <mxCell id="4RD6xHpMuVBiaNQP-EiV-6" value="" style="edgeStyle=orthogonalEdgeStyle;rounded=0;orthogonalLoop=1;jettySize=auto;html=1;" parent="1" source="4RD6xHpMuVBiaNQP-EiV-3" target="4RD6xHpMuVBiaNQP-EiV-5" edge="1">
          <mxGeometry relative="1" as="geometry" />
        </mxCell>
        <mxCell id="4RD6xHpMuVBiaNQP-EiV-3" value="客户端启动" style="whiteSpace=wrap;html=1;strokeWidth=2;" parent="1" vertex="1">
          <mxGeometry x="360" y="320" width="120" height="60" as="geometry" />
        </mxCell>
        <mxCell id="4RD6xHpMuVBiaNQP-EiV-24" value="" style="edgeStyle=orthogonalEdgeStyle;rounded=0;orthogonalLoop=1;jettySize=auto;html=1;" parent="1" source="4RD6xHpMuVBiaNQP-EiV-5" target="4RD6xHpMuVBiaNQP-EiV-23" edge="1">
          <mxGeometry relative="1" as="geometry" />
        </mxCell>
        <mxCell id="4RD6xHpMuVBiaNQP-EiV-5" value="发起option请求" style="whiteSpace=wrap;html=1;strokeWidth=2;" parent="1" vertex="1">
          <mxGeometry x="360" y="430" width="120" height="60" as="geometry" />
        </mxCell>
        <mxCell id="4RD6xHpMuVBiaNQP-EiV-47" style="edgeStyle=orthogonalEdgeStyle;rounded=0;orthogonalLoop=1;jettySize=auto;html=1;entryX=0.5;entryY=0;entryDx=0;entryDy=0;entryPerimeter=0;" parent="1" source="4RD6xHpMuVBiaNQP-EiV-11" target="4RD6xHpMuVBiaNQP-EiV-46" edge="1">
          <mxGeometry relative="1" as="geometry" />
        </mxCell>
        <mxCell id="4RD6xHpMuVBiaNQP-EiV-11" value="渲染首页" style="whiteSpace=wrap;html=1;strokeWidth=2;" parent="1" vertex="1">
          <mxGeometry x="360" y="910" width="120" height="60" as="geometry" />
        </mxCell>
        <mxCell id="4RD6xHpMuVBiaNQP-EiV-26" value="yes" style="edgeStyle=orthogonalEdgeStyle;rounded=0;orthogonalLoop=1;jettySize=auto;html=1;" parent="1" source="4RD6xHpMuVBiaNQP-EiV-23" target="4RD6xHpMuVBiaNQP-EiV-25" edge="1">
          <mxGeometry relative="1" as="geometry">
            <Array as="points">
              <mxPoint x="420" y="670" />
              <mxPoint x="420" y="670" />
            </Array>
          </mxGeometry>
        </mxCell>
        <mxCell id="4RD6xHpMuVBiaNQP-EiV-28" value="no" style="edgeStyle=orthogonalEdgeStyle;rounded=0;orthogonalLoop=1;jettySize=auto;html=1;" parent="1" source="4RD6xHpMuVBiaNQP-EiV-23" target="4RD6xHpMuVBiaNQP-EiV-27" edge="1">
          <mxGeometry relative="1" as="geometry" />
        </mxCell>
        <mxCell id="4RD6xHpMuVBiaNQP-EiV-23" value="&lt;span&gt;后台服务是否正常&lt;/span&gt;" style="rhombus;whiteSpace=wrap;html=1;strokeWidth=2;" parent="1" vertex="1">
          <mxGeometry x="340" y="540" width="160" height="100" as="geometry" />
        </mxCell>
        <mxCell id="4RD6xHpMuVBiaNQP-EiV-36" style="edgeStyle=orthogonalEdgeStyle;rounded=0;orthogonalLoop=1;jettySize=auto;html=1;entryX=0.5;entryY=0;entryDx=0;entryDy=0;" parent="1" source="4RD6xHpMuVBiaNQP-EiV-25" target="4RD6xHpMuVBiaNQP-EiV-35" edge="1">
          <mxGeometry relative="1" as="geometry" />
        </mxCell>
        <mxCell id="4RD6xHpMuVBiaNQP-EiV-25" value="请求后台数据" style="whiteSpace=wrap;html=1;strokeWidth=2;" parent="1" vertex="1">
          <mxGeometry x="360" y="700" width="120" height="60" as="geometry" />
        </mxCell>
        <mxCell id="4RD6xHpMuVBiaNQP-EiV-30" value="" style="edgeStyle=orthogonalEdgeStyle;rounded=0;orthogonalLoop=1;jettySize=auto;html=1;" parent="1" source="4RD6xHpMuVBiaNQP-EiV-27" target="4RD6xHpMuVBiaNQP-EiV-29" edge="1">
          <mxGeometry relative="1" as="geometry" />
        </mxCell>
        <mxCell id="4RD6xHpMuVBiaNQP-EiV-27" value="读取本地缓存" style="whiteSpace=wrap;html=1;strokeWidth=2;" parent="1" vertex="1">
          <mxGeometry x="600" y="560" width="120" height="60" as="geometry" />
        </mxCell>
        <mxCell id="4RD6xHpMuVBiaNQP-EiV-41" value="" style="edgeStyle=orthogonalEdgeStyle;rounded=0;orthogonalLoop=1;jettySize=auto;html=1;" parent="1" source="4RD6xHpMuVBiaNQP-EiV-29" target="4RD6xHpMuVBiaNQP-EiV-40" edge="1">
          <mxGeometry relative="1" as="geometry" />
        </mxCell>
        <mxCell id="4RD6xHpMuVBiaNQP-EiV-42" value="no" style="edgeLabel;html=1;align=center;verticalAlign=middle;resizable=0;points=[];" parent="4RD6xHpMuVBiaNQP-EiV-41" vertex="1" connectable="0">
          <mxGeometry x="-0.5511" y="3" relative="1" as="geometry">
            <mxPoint as="offset" />
          </mxGeometry>
        </mxCell>
        <mxCell id="e_f7Iv0kUN2DoaLc3Avm-1" value="yes" style="edgeStyle=orthogonalEdgeStyle;rounded=0;orthogonalLoop=1;jettySize=auto;html=1;entryX=1;entryY=0.5;entryDx=0;entryDy=0;" edge="1" parent="1" source="4RD6xHpMuVBiaNQP-EiV-29" target="4RD6xHpMuVBiaNQP-EiV-11">
          <mxGeometry relative="1" as="geometry">
            <Array as="points">
              <mxPoint x="660" y="940" />
            </Array>
          </mxGeometry>
        </mxCell>
        <mxCell id="4RD6xHpMuVBiaNQP-EiV-29" value="是否读取到数据" style="rhombus;whiteSpace=wrap;html=1;strokeWidth=2;" parent="1" vertex="1">
          <mxGeometry x="600" y="660" width="120" height="80" as="geometry" />
        </mxCell>
        <mxCell id="4RD6xHpMuVBiaNQP-EiV-39" style="edgeStyle=orthogonalEdgeStyle;rounded=0;orthogonalLoop=1;jettySize=auto;html=1;entryX=0.5;entryY=0;entryDx=0;entryDy=0;" parent="1" source="4RD6xHpMuVBiaNQP-EiV-35" target="4RD6xHpMuVBiaNQP-EiV-11" edge="1">
          <mxGeometry relative="1" as="geometry" />
        </mxCell>
        <mxCell id="4RD6xHpMuVBiaNQP-EiV-35" value="更新缓存" style="whiteSpace=wrap;html=1;strokeWidth=2;" parent="1" vertex="1">
          <mxGeometry x="360" y="800" width="120" height="60" as="geometry" />
        </mxCell>
        <mxCell id="4RD6xHpMuVBiaNQP-EiV-48" style="edgeStyle=orthogonalEdgeStyle;rounded=0;orthogonalLoop=1;jettySize=auto;html=1;entryX=0.5;entryY=1;entryDx=0;entryDy=0;" parent="1" source="4RD6xHpMuVBiaNQP-EiV-40" target="4RD6xHpMuVBiaNQP-EiV-43" edge="1">
          <mxGeometry relative="1" as="geometry" />
        </mxCell>
        <mxCell id="4RD6xHpMuVBiaNQP-EiV-40" value="提示用户网络断开" style="whiteSpace=wrap;html=1;strokeWidth=2;" parent="1" vertex="1">
          <mxGeometry x="780" y="560" width="120" height="60" as="geometry" />
        </mxCell>
        <mxCell id="4RD6xHpMuVBiaNQP-EiV-50" style="edgeStyle=orthogonalEdgeStyle;rounded=0;orthogonalLoop=1;jettySize=auto;html=1;entryX=1;entryY=0.5;entryDx=0;entryDy=0;" parent="1" source="4RD6xHpMuVBiaNQP-EiV-43" target="4RD6xHpMuVBiaNQP-EiV-5" edge="1">
          <mxGeometry relative="1" as="geometry" />
        </mxCell>
        <mxCell id="4RD6xHpMuVBiaNQP-EiV-43" value="点击重试" style="whiteSpace=wrap;html=1;strokeWidth=2;" parent="1" vertex="1">
          <mxGeometry x="780" y="430" width="120" height="60" as="geometry" />
        </mxCell>
        <mxCell id="4RD6xHpMuVBiaNQP-EiV-46" value="结束" style="strokeWidth=2;html=1;shape=mxgraph.flowchart.terminator;whiteSpace=wrap;" parent="1" vertex="1">
          <mxGeometry x="370" y="1020" width="100" height="60" as="geometry" />
        </mxCell>
      </root>
    </mxGraphModel>
  </diagram>
</mxfile>
